<svg xmlns="http://www.w3.org/2000/svg" viewBox="0 0 100 100" role="img" aria-label="Sunny">
  <defs>
    <linearGradient id="doradoGrad" x1="0%" y1="0%" x2="100%" y2="100%">
      <stop offset="0%" stop-color="#B8862B" />
      <stop offset="50%" stop-color="#E8C572" />
      <stop offset="100%" stop-color="#9C6F1E" />
    </linearGradient>
  </defs>
  <rect width="100" height="100" fill="#14100A" />
  <!-- Scaled to sit inside the maskable-icon safe zone (centered ~68%) -->
  <g transform="translate(50 50) scale(0.68) translate(-50 -50)">
    <g stroke="url(#doradoGrad)" stroke-width="2.4" stroke-linecap="round" fill="none">
      <line x1="65.00" y1="50.00" x2="83.00" y2="50.00" />
      <line x1="60.61" y1="60.61" x2="73.33" y2="73.33" />
      <line x1="50.00" y1="65.00" x2="50.00" y2="83.00" />
      <line x1="39.39" y1="60.61" x2="26.67" y2="73.33" />
      <line x1="35.00" y1="50.00" x2="17.00" y2="50.00" />
      <line x1="39.39" y1="39.39" x2="26.67" y2="26.67" />
      <line x1="50.00" y1="35.00" x2="50.00" y2="17.00" />
      <line x1="60.61" y1="39.39" x2="73.33" y2="26.67" />
    </g>
    <g fill="url(#doradoGrad)">
      <circle cx="50" cy="50" r="13" />
      <circle cx="74.00" cy="50.00" r="3" />
      <circle cx="83.00" cy="50.00" r="3.6" />
      <circle cx="66.97" cy="66.97" r="3" />
      <circle cx="73.33" cy="73.33" r="3.6" />
      <circle cx="50.00" cy="74.00" r="3" />
      <circle cx="50.00" cy="83.00" r="3.6" />
      <circle cx="33.03" cy="66.97" r="3" />
      <circle cx="26.67" cy="73.33" r="3.6" />
      <circle cx="26.00" cy="50.00" r="3" />
      <circle cx="17.00" cy="50.00" r="3.6" />
      <circle cx="33.03" cy="33.03" r="3" />
      <circle cx="26.67" cy="26.67" r="3.6" />
      <circle cx="50.00" cy="26.00" r="3" />
      <circle cx="50.00" cy="17.00" r="3.6" />
      <circle cx="66.97" cy="33.03" r="3" />
      <circle cx="73.33" cy="26.67" r="3.6" />
    </g>
  </g>
</svg>
